<?xml version="1.0" standalone="no"?>
<!DOCTYPE svg PUBLIC "-//W3C//DTD SVG 20010904//EN"
 "http://www.w3.org/TR/2001/REC-SVG-20010904/DTD/svg10.dtd">
<svg version="1.0" xmlns="http://www.w3.org/2000/svg"
 width="1920.000000pt" height="1920.000000pt" viewBox="0 0 1920.000000 1920.000000"
 preserveAspectRatio="xMidYMid meet">
<metadata>
Created by potrace 1.11, written by Peter Selinger 2001-2013
</metadata>
<g transform="translate(0.000000,1920.000000) scale(0.100000,-0.100000)"
fill="#000000" stroke="none">
<path d="M0 9600 l0 -9600 9600 0 9600 0 0 9600 0 9600 -9600 0 -9600 0 0
-9600z m16530 6027 c0 -1 -65 -328 -145 -727 -80 -399 -145 -726 -145 -727 0
-2 -856 -4 -1902 -5 l-1902 -3 -173 -410 c-95 -225 -173 -411 -173 -412 0 -2
679 -3 1509 -3 l1508 0 -258 -1292 c-142 -711 -261 -1305 -265 -1320 l-6 -28
612 0 c578 0 611 -1 606 -17 -3 -10 -69 -339 -147 -730 l-142 -713 -4063 0
c-2235 0 -4064 -3 -4064 -7 -1 -5 -126 -631 -278 -1393 l-278 -1385 -786 -3
-785 -2 78 392 c44 216 79 398 79 405 0 10 -59 13 -279 13 l-278 0 -117 -587
c-65 -324 -122 -609 -128 -635 l-10 -48 -784 0 c-431 0 -784 3 -784 8 0 4 406
2035 901 4515 l902 4507 1848 0 c1757 0 1849 -1 1849 -18 0 -9 -193 -981 -429
-2160 l-428 -2142 835 2 835 3 238 585 237 585 -647 5 c-566 4 -646 7 -644 20
1 8 66 336 144 727 l142 713 835 2 835 3 173 410 c96 226 174 411 174 413 0 1
-519 2 -1154 2 l-1153 0 143 718 c79 394 146 723 149 730 3 9 785 12 3860 12
2120 0 3855 -1 3855 -3z m-1710 -6765 c0 -7 -976 -4891 -985 -4929 l-5 -23
-785 0 c-432 0 -785 1 -785 3 0 2 29 149 65 327 36 178 65 325 65 327 0 2
-823 3 -1829 3 l-1828 0 -62 -312 c-34 -172 -64 -321 -67 -330 -5 -17 -51 -18
-790 -18 -431 0 -784 1 -784 3 0 1 223 1116 495 2477 272 1361 495 2476 495
2477 0 2 1530 3 3400 3 1870 0 3400 -3 3400 -8z"/>
<path d="M5631 11153 c-259 -1297 -471 -2364 -471 -2370 0 -10 62 -13 279 -13
l278 0 472 2358 c259 1296 471 2363 471 2370 0 9 -62 12 -279 12 l-278 0 -472
-2357z"/>
<path d="M11186 11297 c-130 -321 -236 -586 -236 -590 0 -4 464 -7 1030 -7
567 0 1030 1 1030 3 0 1 52 261 115 577 63 316 115 580 115 587 0 10 -179 13
-909 13 l-908 0 -237 -583z"/>
<path d="M9300 7407 c0 -1 -61 -306 -135 -677 -74 -371 -135 -680 -135 -687 0
-11 353 -13 1827 -11 l1827 3 131 655 c72 360 134 670 138 688 l6 32 -1829 0
c-1007 0 -1830 -1 -1830 -3z"/>
</g>
</svg>
